<svg width="33" height="32" viewBox="0 0 33 32" fill="none" xmlns="http://www.w3.org/2000/svg">
<path d="M32.5 16C32.5 7.16344 25.3366 0 16.5 0C7.66344 0 0.5 7.16344 0.5 16C0.5 24.8366 7.66344 32 16.5 32C25.3366 32 32.5 24.8366 32.5 16Z" fill="#242424"/>
<path d="M19.3486 10.5519C19.6504 10.2033 19.8805 9.79848 20.0258 9.36056C20.171 8.92264 20.2285 8.46029 20.1949 8.00006C19.2683 8.07501 18.4082 8.51167 17.7998 9.21598C17.5085 9.55354 17.2877 9.94624 17.1506 10.3708C17.0135 10.7954 16.9628 11.2432 17.0015 11.6878C17.4535 11.6916 17.9002 11.5911 18.3073 11.3941C18.7143 11.1971 19.0706 10.909 19.3486 10.5519ZM21.3604 16.5035C21.3658 15.8905 21.5269 15.289 21.8286 14.7558C22.1304 14.2225 22.5627 13.7751 23.0849 13.4557C22.7553 12.9799 22.3197 12.5876 21.8125 12.3099C21.3053 12.0322 20.7405 11.8767 20.1629 11.8558C18.9175 11.7278 17.7679 12.5838 17.1053 12.5838C16.4426 12.5838 15.5086 11.8718 14.4707 11.8878C13.7922 11.9102 13.1311 12.1084 12.5519 12.4631C11.9726 12.8178 11.495 13.3169 11.1656 13.9117C9.7605 16.3595 10.8063 19.9993 12.2114 21.9751C12.8501 22.9431 13.6484 24.039 14.7023 23.999C15.7561 23.959 16.0994 23.343 17.3208 23.343C18.5423 23.343 18.9175 23.999 19.9554 23.975C20.9932 23.951 21.7277 22.9831 22.3983 22.0151C22.8733 21.3124 23.2444 20.5445 23.5 19.7353C22.8673 19.4649 22.3275 19.0148 21.9473 18.4404C21.567 17.8661 21.363 17.1927 21.3604 16.5035Z" fill="white"/>
</svg>
