<svg width="16" height="18" viewBox="0 0 16 18" fill="none" xmlns="http://www.w3.org/2000/svg">
<path d="M6.09082 5.16983C6.1802 5.16983 6.26895 5.14858 6.35145 5.10671L10.4108 3.02421C10.6108 2.92171 10.7339 2.71171 10.7264 2.48483C10.7189 2.25796 10.5827 2.05671 10.3764 1.96733L6.38457 0.239834C6.20832 0.163584 6.0052 0.180459 5.84395 0.286709C5.68207 0.391709 5.58395 0.571709 5.5802 0.766084L5.55832 2.00733C2.45145 3.05733 0.390822 5.98858 0.503947 9.28921C0.593947 11.9105 2.0927 14.3198 4.41645 15.5761C4.50332 15.623 4.59645 15.6448 4.68832 15.6448C4.89457 15.6448 5.09395 15.533 5.1977 15.3367C5.3477 15.0523 5.24207 14.6992 4.96082 14.5473C2.99895 13.4861 1.73332 11.4561 1.65707 9.24858C1.56645 6.60858 3.13207 4.24858 5.53645 3.25858L5.51332 4.57546C5.5102 4.77983 5.6127 4.97171 5.78457 5.08046C5.8777 5.14046 5.98395 5.16983 6.09082 5.16983ZM8.7877 2.54921L6.6852 3.62796L6.7202 1.65421L8.7877 2.54921ZM15.4958 8.78358C15.4121 6.34983 14.1308 4.10733 12.0696 2.78421C11.7983 2.61108 11.4433 2.69171 11.2727 2.96421C11.1027 3.23608 11.1821 3.59671 11.4508 3.76921C13.1914 4.88608 14.2733 6.77546 14.3433 8.82358C14.4277 11.2723 13.0771 13.5023 10.9233 14.6023L10.8896 13.2861C10.8833 13.0817 10.7727 12.8955 10.5971 12.7942C10.4214 12.6936 10.2058 12.6923 10.0302 12.793L6.06332 15.0442C5.8677 15.1555 5.75395 15.3705 5.7702 15.5967C5.78707 15.8223 5.93145 16.018 6.14145 16.0986L10.2052 17.6561C10.2721 17.6811 10.3408 17.6936 10.4096 17.6936C10.5271 17.6936 10.6446 17.6567 10.7433 17.5861C10.9002 17.4736 10.9908 17.2892 10.9864 17.0955L10.9552 15.8717C13.7908 14.6698 15.6021 11.8736 15.4958 8.78358ZM7.7052 15.4498L9.7602 14.2836L9.81082 16.2567L7.7052 15.4498Z" fill="#FF4100"/>
</svg>
