<svg width="20" height="21" viewBox="0 0 20 21" fill="none" xmlns="http://www.w3.org/2000/svg">
<path d="M8.09082 7.16996C8.1802 7.16996 8.26895 7.14871 8.35145 7.10683L12.4108 5.02433C12.6108 4.92183 12.7339 4.71183 12.7264 4.48496C12.7189 4.25808 12.5827 4.05683 12.3764 3.96746L8.38457 2.23996C8.20832 2.16371 8.0052 2.18058 7.84395 2.28683C7.68207 2.39183 7.58395 2.57183 7.5802 2.76621L7.55832 4.00746C4.45145 5.05746 2.39082 7.98871 2.50395 11.2893C2.59395 13.9106 4.0927 16.32 6.41645 17.5762C6.50332 17.6231 6.59645 17.645 6.68832 17.645C6.89457 17.645 7.09395 17.5331 7.1977 17.3368C7.3477 17.0525 7.24207 16.6993 6.96082 16.5475C4.99895 15.4862 3.73332 13.4562 3.65707 11.2487C3.56645 8.60871 5.13207 6.24871 7.53645 5.25871L7.51332 6.57558C7.5102 6.77996 7.6127 6.97183 7.78457 7.08058C7.8777 7.14058 7.98395 7.16996 8.09082 7.16996ZM10.7877 4.54933L8.6852 5.62808L8.7202 3.65433L10.7877 4.54933ZM17.4958 10.7837C17.4121 8.34996 16.1308 6.10746 14.0696 4.78433C13.7983 4.61121 13.4433 4.69183 13.2727 4.96433C13.1027 5.23621 13.1821 5.59683 13.4508 5.76933C15.1914 6.88621 16.2733 8.77558 16.3433 10.8237C16.4277 13.2725 15.0771 15.5025 12.9233 16.6025L12.8896 15.2862C12.8833 15.0818 12.7727 14.8956 12.5971 14.7943C12.4214 14.6937 12.2058 14.6925 12.0302 14.7931L8.06332 17.0443C7.8677 17.1556 7.75395 17.3706 7.7702 17.5968C7.78707 17.8225 7.93145 18.0181 8.14145 18.0987L12.2052 19.6562C12.2721 19.6812 12.3408 19.6937 12.4096 19.6937C12.5271 19.6937 12.6446 19.6568 12.7433 19.5862C12.9002 19.4737 12.9908 19.2893 12.9864 19.0956L12.9552 17.8718C15.7908 16.67 17.6021 13.8737 17.4958 10.7837ZM9.7052 17.45L11.7602 16.2837L11.8108 18.2568L9.7052 17.45Z" fill="#FF4100"/>
</svg>
