<svg width="25" height="25" viewBox="0 0 25 25" fill="none" xmlns="http://www.w3.org/2000/svg">
<path d="M3.3335 12.5C3.3335 7.52943 7.36293 3.5 12.3335 3.5C17.3041 3.5 21.3335 7.52943 21.3335 12.5V18.9286C21.3335 19.2271 21.3335 19.3764 21.3194 19.502C21.2019 20.5451 20.3786 21.3684 19.3355 21.4859C19.2099 21.5 19.0606 21.5 18.7621 21.5H12.3335C7.36293 21.5 3.3335 17.4706 3.3335 12.5Z" stroke="white"/>
<path d="M9.7085 15.0625C9.84656 15.0625 9.9585 15.1744 9.9585 15.3125C9.9585 15.4506 9.84656 15.5625 9.7085 15.5625C9.57043 15.5625 9.4585 15.4506 9.4585 15.3125C9.4585 15.1744 9.57043 15.0625 9.7085 15.0625Z" fill="black" stroke="white"/>
<path d="M12.7475 9.99279C12.8851 9.71432 13.2822 9.71432 13.4199 9.99279L13.606 10.3694C13.9218 11.0086 14.3793 11.5673 14.9436 12.003L15.3243 12.2969C15.5187 12.447 15.5187 12.7404 15.3243 12.8905L14.9436 13.1844C14.3793 13.6201 13.9218 14.1788 13.606 14.818L13.4199 15.1946C13.2822 15.4731 12.8851 15.4731 12.7475 15.1946L12.5614 14.818C12.2455 14.1788 11.788 13.6201 11.2237 13.1844L10.8431 12.8905C10.6487 12.7404 10.6487 12.447 10.8431 12.2969L11.2237 12.003C11.788 11.5673 12.2455 11.0086 12.5614 10.3694L12.7475 9.99279Z" stroke="white" stroke-linejoin="round"/>
</svg>
