<svg width="16" height="17" viewBox="0 0 16 17" fill="none" xmlns="http://www.w3.org/2000/svg">
<path d="M7.99989 0.713754C6.37066 0.712554 4.78113 1.21652 3.45023 2.15626C2.11927 3.09603 1.11245 4.42535 0.568426 5.96114C0.0244045 7.49693 -0.0300455 9.16362 0.412576 10.7316C0.855143 12.2995 1.77289 13.6915 3.03943 14.7161C3.10632 14.7714 3.1902 14.8019 3.27697 14.8026L3.27724 14.8026C3.33462 14.803 3.39132 14.7902 3.44303 14.7653C3.49445 14.7406 3.53959 14.7045 3.57507 14.6599C3.60636 14.6216 3.62984 14.5776 3.64419 14.5304C3.65863 14.4828 3.66354 14.4328 3.65863 14.3833C3.65371 14.3338 3.63908 14.2858 3.61556 14.242C3.59203 14.1981 3.56009 14.1594 3.52156 14.1279L3.52122 14.1277C2.18026 13.043 1.27845 11.5086 0.983231 9.80931C0.688012 8.11004 1.01944 6.36137 1.91598 4.88797C2.84027 3.36938 4.29908 2.25136 6.00574 1.7536C7.7124 1.25585 9.54351 1.41435 11.1393 2.19796C11.1839 2.21988 11.2324 2.23277 11.282 2.2359C11.3317 2.23902 11.3814 2.23232 11.4284 2.21618C11.4755 2.20003 11.5189 2.17476 11.5561 2.14182C11.5932 2.10896 11.6235 2.06912 11.6453 2.02457C11.6897 1.93496 11.6967 1.83141 11.6649 1.7366C11.633 1.64168 11.5648 1.5633 11.4751 1.51868L11.4748 1.51851C10.3941 0.985655 9.20477 0.710213 7.99989 0.713754ZM7.99989 0.713754C7.99983 0.713755 7.99977 0.713755 7.9997 0.713755L8 0.813755L8.00008 0.713755C8.00001 0.713755 7.99995 0.713754 7.99989 0.713754ZM8.00002 16.4693C9.39824 16.469 10.7712 16.0965 11.9778 15.3902C13.1845 14.6838 14.1815 13.669 14.8663 12.45C15.5511 11.231 15.8992 9.85169 15.8747 8.45369C15.8503 7.05569 15.4542 5.68939 14.7271 4.49509L14.727 4.495C14.2573 3.72529 13.6599 3.04126 12.9603 2.47229L12.9603 2.47224C12.9216 2.44086 12.8772 2.41742 12.8294 2.40328C12.7817 2.38914 12.7316 2.38457 12.6821 2.38984C12.6326 2.39511 12.5847 2.4101 12.541 2.43397C12.4973 2.45783 12.4588 2.4901 12.4276 2.5289L12.4274 2.5291C12.3652 2.60692 12.3363 2.70615 12.3469 2.80521C12.3575 2.90426 12.4068 2.99511 12.4841 3.05799L12.4841 3.05801C13.1174 3.57288 13.6585 4.19175 14.0841 4.88813C14.8922 6.21481 15.2445 7.76932 15.0871 9.31476C14.9297 10.8602 14.2714 12.3119 13.2124 13.4485C12.1534 14.5851 10.7518 15.3442 9.22126 15.6103C7.69073 15.8763 6.11519 15.6347 4.73476 14.9221C4.64564 14.8761 4.54188 14.8673 4.4463 14.8978L4.47665 14.993L4.43333 15.5054L4.38733 15.5942C5.50356 16.1725 6.74291 16.4727 8.00002 16.4693ZM8.00002 16.4693L8 16.3693L8.00027 16.4693C8.00019 16.4693 8.00011 16.4693 8.00002 16.4693Z" fill="#FF4100" stroke="#FF4100" stroke-width="0.2"/>
<path d="M7.72174 16.1915L7.72227 16.1915C7.79843 16.1913 7.87276 16.1681 7.9355 16.1249C7.99824 16.0817 8.04646 16.0206 8.07383 15.9495C8.1012 15.8784 8.10644 15.8007 8.08887 15.7266C8.0713 15.6525 8.03174 15.5854 7.97538 15.5342L7.97469 15.5336C7.00129 14.665 6.25943 13.5678 5.81605 12.3409L5.81615 12.3408L5.81443 12.3367C5.32331 11.1479 5.06197 9.87687 5.04423 8.59081C5.04385 7.30491 5.30477 6.03234 5.81115 4.85033L5.81117 4.85034L5.81191 4.8485C6.30106 3.64114 7.03891 2.55028 7.97746 1.64689L7.97749 1.64692L7.9795 1.64487C8.04696 1.57611 8.0856 1.48418 8.08752 1.38788C8.08945 1.29157 8.05452 1.19817 7.98987 1.12676C7.92522 1.05536 7.83573 1.01134 7.73971 1.00372C7.64369 0.996103 7.54838 1.02545 7.47328 1.08576L7.47302 1.08544L7.46648 1.09175C6.45272 2.0693 5.65648 3.24963 5.12974 4.55571C4.57794 5.82973 4.29176 7.2029 4.28865 8.59129L4.28869 8.59319C4.31194 9.97717 4.59699 11.3442 5.12876 12.6222C5.61002 13.9548 6.41402 15.1475 7.46888 16.0935C7.53813 16.1563 7.62823 16.1913 7.72174 16.1915Z" fill="#FF4100" stroke="#FF4100" stroke-width="0.2"/>
<path d="M8.27749 16.1915L8.27749 16.1916L8.28212 16.1914C8.37015 16.1875 8.45405 16.153 8.51932 16.0939C9.57843 15.1491 10.3865 13.9562 10.871 12.6222C11.4028 11.3443 11.6878 9.97716 11.7111 8.59315L11.7111 8.59315L11.7111 8.59157C11.7124 7.20406 11.431 5.83083 10.8839 4.55572C10.3532 3.24872 9.55248 2.06855 8.53408 1.09248C8.49826 1.05629 8.45548 1.0277 8.40832 1.00845C8.36065 0.988995 8.3095 0.97949 8.25801 0.98052C8.20653 0.98155 8.1558 0.993094 8.10894 1.01444C8.06208 1.03579 8.02009 1.0665 7.98553 1.10467C7.95096 1.14284 7.92457 1.18767 7.90797 1.23641C7.89137 1.28516 7.8849 1.33678 7.88898 1.38811C7.89305 1.43944 7.90758 1.4894 7.93166 1.53491C7.95499 1.579 7.98681 1.61802 8.02527 1.64972C8.96241 2.55255 9.69922 3.64238 10.1878 4.84847L10.1878 4.84847L10.1886 4.8503C10.695 6.0323 10.9559 7.30486 10.9555 8.59076C10.9378 9.87683 10.6764 11.1479 10.1853 12.3366L10.1852 12.3366L10.1837 12.3408C9.74033 13.5677 8.99847 14.665 8.02506 15.5335L8.02506 15.5335L8.02438 15.5341C7.96802 15.5854 7.92845 15.6524 7.91089 15.7266C7.89332 15.8007 7.89856 15.8784 7.92593 15.9494C7.9533 16.0205 8.00152 16.0817 8.06426 16.1249C8.127 16.1681 8.20132 16.1913 8.27749 16.1915Z" fill="#FF4100" stroke="#FF4100" stroke-width="0.2"/>
<path d="M0.499946 8.96925H15.4999C15.6001 8.96925 15.6962 8.92945 15.7671 8.8586C15.8379 8.78775 15.8777 8.69166 15.8777 8.59147C15.8777 8.49128 15.8379 8.39519 15.7671 8.32434C15.6962 8.25349 15.6001 8.21369 15.4999 8.21369H0.499946C0.399753 8.21369 0.303664 8.25349 0.232817 8.32434C0.16197 8.39519 0.122168 8.49128 0.122168 8.59147C0.122168 8.69166 0.16197 8.78775 0.232817 8.8586C0.303664 8.92945 0.399753 8.96925 0.499946 8.96925ZM1.61106 5.08036H14.3888C14.489 5.08036 14.5851 5.04056 14.656 4.96971C14.7268 4.89886 14.7666 4.80277 14.7666 4.70258C14.7666 4.60239 14.7268 4.5063 14.656 4.43545C14.5851 4.36461 14.489 4.3248 14.3888 4.3248H1.61106C1.51086 4.3248 1.41477 4.36461 1.34393 4.43545C1.27308 4.5063 1.23328 4.60239 1.23328 4.70258C1.23328 4.80278 1.27308 4.89886 1.34393 4.96971C1.41477 5.04056 1.51086 5.08036 1.61106 5.08036ZM1.61106 12.8581H14.3888C14.489 12.8581 14.5851 12.8183 14.656 12.7475C14.7268 12.6766 14.7666 12.5806 14.7666 12.4804C14.7666 12.3802 14.7268 12.2841 14.656 12.2132C14.5851 12.1424 14.489 12.1026 14.3888 12.1026H1.61106C1.51086 12.1026 1.41477 12.1424 1.34393 12.2132C1.27308 12.2841 1.23328 12.3802 1.23328 12.4804C1.23328 12.5806 1.27308 12.6766 1.34393 12.7475C1.41477 12.8183 1.51086 12.8581 1.61106 12.8581Z" fill="#FF4100" stroke="#FF4100" stroke-width="0.2"/>
<path d="M7.73282 16.0809C7.80366 16.1518 7.89975 16.1916 7.99995 16.1916C8.10014 16.1916 8.19623 16.1518 8.26708 16.0809C8.33792 16.0101 8.37772 15.914 8.37772 15.8138V1.36933C8.37772 1.26914 8.33792 1.17305 8.26708 1.1022C8.19623 1.03135 8.10014 0.991553 7.99995 0.991553C7.89975 0.991553 7.80366 1.03135 7.73282 1.1022C7.66197 1.17305 7.62217 1.26914 7.62217 1.36933V15.8138C7.62217 15.914 7.66197 16.0101 7.73282 16.0809Z" fill="#FF4100" stroke="#FF4100" stroke-width="0.2"/>
</svg>
