<svg width="33" height="32" viewBox="0 0 33 32" fill="none" xmlns="http://www.w3.org/2000/svg">
<path d="M32.5 16C32.5 7.16344 25.3366 0 16.5 0C7.66344 0 0.5 7.16344 0.5 16C0.5 24.8366 7.66344 32 16.5 32C25.3366 32 32.5 24.8366 32.5 16Z" fill="#242424"/>
<path d="M17.8418 24.0001V16.7011H20.4953L20.8932 13.8565H17.8418V12.0403C17.8418 11.2168 18.0895 10.6556 19.3686 10.6556H21V8.11211C20.2104 8.03497 19.4168 7.9976 18.6227 8.00019C16.2705 8.00019 14.6603 9.32576 14.6603 11.7603V13.8565H12V16.7011H14.6603V24.0001H17.8418Z" fill="#FDFDFD"/>
</svg>
