<svg width="33" height="32" viewBox="0 0 33 32" fill="none" xmlns="http://www.w3.org/2000/svg">
<path d="M32.5 16C32.5 7.16344 25.3366 0 16.5 0C7.66344 0 0.5 7.16344 0.5 16C0.5 24.8366 7.66344 32 16.5 32C25.3366 32 32.5 24.8366 32.5 16Z" fill="#242424"/>
<g clip-path="url(#clip0_1_1462)">
<path d="M24.6169 16.1499C24.6169 15.4944 24.5637 15.016 24.4487 14.52H16.9683V17.4786H21.3591C21.2706 18.2139 20.7926 19.3212 19.7302 20.0652L19.7154 20.1643L22.0805 21.9978L22.2444 22.0141C23.7493 20.6233 24.6169 18.5771 24.6169 16.1499Z" fill="white"/>
<path d="M16.9683 23.9452C19.1195 23.9452 20.9254 23.2365 22.2444 22.0141L19.7303 20.0652C19.0575 20.5347 18.1545 20.8625 16.9683 20.8625C14.8614 20.8625 13.0732 19.4718 12.4358 17.5495L12.3423 17.5574L9.88299 19.462L9.85083 19.5515C11.161 22.1558 13.8522 23.9452 16.9683 23.9452Z" fill="white"/>
<path d="M12.4357 17.5495C12.2675 17.0534 12.1702 16.5219 12.1702 15.9727C12.1702 15.4234 12.2675 14.892 12.4269 14.3959L12.4224 14.2902L9.93228 12.3551L9.8508 12.3939C9.31082 13.4746 9.00098 14.6882 9.00098 15.9727C9.00098 17.2571 9.31082 18.4707 9.8508 19.5514L12.4357 17.5495Z" fill="white"/>
<path d="M16.9683 11.0829C18.4644 11.0829 19.4736 11.7295 20.049 12.2699L22.2975 10.073C20.9166 8.78858 19.1195 8.00018 16.9683 8.00018C13.8522 8.00018 11.161 9.78956 9.85083 12.3939L12.4269 14.3959C13.0732 12.4736 14.8614 11.0829 16.9683 11.0829Z" fill="white"/>
</g>
<defs>
<clipPath id="clip0_1_1462">
<rect width="15.625" height="16" fill="white" transform="translate(9.00024 8.00018)"/>
</clipPath>
</defs>
</svg>
