<svg width="25" height="25" viewBox="0 0 25 25" fill="none" xmlns="http://www.w3.org/2000/svg">
<path d="M3.21484 17.4292C3.2588 17.4776 3.30427 17.5246 3.35059 17.5708L7.59473 21.8149V21.8159C7.63996 21.8613 7.68707 21.9047 7.73438 21.9478C7.46316 22.1098 7.15216 22.1997 6.83105 22.1997C6.42551 22.1996 6.03418 22.0602 5.72168 21.8071L5.59277 21.6919L3.47266 19.5718C3.14494 19.2437 2.96094 18.7982 2.96094 18.3345C2.96103 18.0125 3.0508 17.7002 3.21484 17.4292ZM14.7344 4.43896C15.1984 4.43901 15.6435 4.62362 15.9717 4.95166L20.2158 9.19482C20.5438 9.52298 20.7275 9.96814 20.7275 10.4321C20.7275 10.8382 20.5872 11.2301 20.332 11.5415L20.2158 11.6694L19.7383 12.146C19.5758 12.3085 19.3823 12.4379 19.1699 12.5259C18.9576 12.6138 18.7298 12.6587 18.5 12.6587C18.2704 12.6586 18.0432 12.6137 17.8311 12.5259C17.6187 12.4379 17.4252 12.3085 17.2627 12.146L15.6709 10.5562L15.3174 10.2026L10.7217 14.7983L10.3691 15.1519L10.7217 15.5054L12.3125 17.0972C12.6406 17.4253 12.8252 17.8704 12.8252 18.3345C12.8251 18.7981 12.6411 19.2428 12.3135 19.5708L11.835 20.0483C11.5068 20.3763 11.0616 20.561 10.5977 20.561C10.1337 20.561 9.68845 20.3763 9.36035 20.0483L5.11719 15.8052C4.78915 15.477 4.60454 15.0318 4.60449 14.5679C4.60449 14.1618 4.74585 13.7699 5.00098 13.4585L5.11719 13.3306L5.59473 12.854V12.853C5.75722 12.6905 5.95078 12.5621 6.16309 12.4741C6.37537 12.3862 6.60324 12.3403 6.83301 12.3403C7.06259 12.3404 7.28983 12.3863 7.50195 12.4741C7.71423 12.5621 7.90783 12.6906 8.07031 12.853V12.854L9.66211 14.4438L10.0156 14.7974L10.3691 14.4438L14.6104 10.2017L14.9639 9.84814L14.6113 9.49463L13.0205 7.90283C12.6924 7.57466 12.5078 7.12956 12.5078 6.66553C12.5079 6.20155 12.6925 5.75636 13.0205 5.42822L13.0195 5.42725L13.4971 4.95166C13.8252 4.62359 14.2703 4.43896 14.7344 4.43896ZM18.501 2.79443C18.9066 2.79443 19.2981 2.93535 19.6094 3.18994L19.7383 3.30615L21.8604 5.42822C22.1879 5.75625 22.372 6.20097 22.3721 6.66455C22.3721 6.9868 22.2804 7.29867 22.1162 7.56982C22.0725 7.52177 22.0275 7.47414 21.9814 7.42822L17.7373 3.18408H17.7383C17.6919 3.13759 17.6442 3.09245 17.5957 3.04834C17.8667 2.88429 18.179 2.79452 18.501 2.79443Z" stroke="white"/>
</svg>
