<svg width="18" height="18" viewBox="0 0 18 18" fill="none" xmlns="http://www.w3.org/2000/svg">
<path d="M9 0.0809326C4.16781 0.0809326 0.25 3.99874 0.25 8.83093C0.25 13.6631 4.16781 17.5809 9 17.5809C13.8322 17.5809 17.75 13.6631 17.75 8.83093C17.75 3.99874 13.8322 0.0809326 9 0.0809326ZM9 0.705933C10.6009 0.705933 12.0909 1.17781 13.3506 1.98031L11.0537 4.27718C10.4089 3.98359 9.70858 3.83143 9 3.83093C8.2675 3.83093 7.57344 3.99312 6.94625 4.27718L4.64937 1.98031C5.90906 1.17781 7.39906 0.705933 9 0.705933ZM4.44625 10.8847L2.14937 13.1816C1.34687 11.9222 0.875 10.4319 0.875 8.83093C0.875 7.23 1.34687 5.73968 2.14937 4.48031L4.44625 6.77718C4.15262 7.42207 4.00046 8.12234 4 8.83093C4 9.56343 4.16219 10.2572 4.44625 10.8847ZM9 16.9559C7.39906 16.9559 5.90906 16.4841 4.64937 15.6816L6.94625 13.3847C7.59113 13.6783 8.29141 13.8305 9 13.8309C9.7325 13.8309 10.4262 13.6687 11.0537 13.3847L13.3506 15.6816C12.0909 16.4841 10.6009 16.9559 9 16.9559ZM13.0759 10.4112C12.8554 10.9772 12.5198 11.4911 12.0903 11.9206C11.6608 12.3501 11.1469 12.6857 10.5809 12.9062C10.0772 13.1036 9.54103 13.2052 9 13.2059C8.44219 13.2059 7.91 13.0972 7.41906 12.9062C6.5979 12.5862 5.89217 12.0262 5.3938 11.2993C4.89544 10.5724 4.62753 9.71227 4.625 8.83093C4.62871 7.67175 5.09084 6.56111 5.9105 5.74144C6.73017 4.92177 7.84082 4.45964 9 4.45593C10.1592 4.45964 11.2698 4.92177 12.0895 5.74144C12.9092 6.56111 13.3713 7.67175 13.375 8.83093C13.375 9.38875 13.2662 9.92031 13.0759 10.4112ZM13.5537 10.8847C13.8472 10.2397 13.9994 9.5395 14 8.83093C13.9994 8.12236 13.8472 7.42212 13.5537 6.77718L15.8506 4.48031C16.6531 5.73968 17.125 7.23 17.125 8.83093C17.125 10.4319 16.6531 11.9222 15.8506 13.1816L13.5537 10.8847Z" fill="#FF4100"/>
</svg>
