<svg width="20" height="21" viewBox="0 0 20 21" fill="none" xmlns="http://www.w3.org/2000/svg">
<path d="M14.8296 4.40356C14.8772 4.41771 14.9219 4.44061 14.9604 4.47192C15.66 5.0409 16.2573 5.72565 16.7271 6.49536L16.8599 6.72095C17.5025 7.86013 17.8515 9.1429 17.8745 10.4534C17.899 11.8514 17.5515 13.2314 16.8667 14.4504C16.1819 15.6693 15.1845 16.6836 13.978 17.3899C12.7715 18.0962 11.3985 18.4686 10.0005 18.469C8.74329 18.4724 7.50351 18.1723 6.38721 17.594C6.2983 17.5479 6.23114 17.4687 6.20068 17.3733C6.17023 17.2777 6.17903 17.1734 6.2251 17.0842C6.27118 16.9952 6.35127 16.9281 6.44678 16.8977C6.54225 16.8674 6.64587 16.8761 6.73486 16.9221L6.99561 17.05C8.31176 17.6628 9.78628 17.86 11.2212 17.6106C12.7517 17.3446 14.1534 16.5851 15.2124 15.4485C16.2714 14.3119 16.93 12.8602 17.0874 11.3147C17.2447 9.76929 16.8926 8.21459 16.0845 6.88794C15.6588 6.19156 15.1172 5.57273 14.4839 5.05786C14.4067 4.99499 14.3578 4.9039 14.3472 4.80493C14.3366 4.70611 14.3653 4.60724 14.4272 4.52954V4.52856C14.4583 4.48986 14.497 4.45768 14.5405 4.43384C14.5842 4.40998 14.6326 4.39516 14.6821 4.38989C14.7316 4.38463 14.7819 4.38942 14.8296 4.40356ZM9.99951 2.71509C11.2045 2.71152 12.3944 2.98592 13.4751 3.5188L13.5386 3.55786C13.597 3.60314 13.6407 3.66549 13.6646 3.73657C13.6885 3.80776 13.6907 3.88388 13.6714 3.95532L13.645 4.02466C13.6233 4.06914 13.5932 4.10904 13.5562 4.14185C13.5189 4.17479 13.4753 4.19992 13.4282 4.21606C13.3812 4.23217 13.3313 4.23872 13.2817 4.2356C13.2322 4.23243 13.1837 4.21938 13.1392 4.19751C11.5435 3.41401 9.71194 3.25545 8.00537 3.75317C6.29881 4.25096 4.83978 5.36941 3.91553 6.88794C3.01916 8.36115 2.68786 10.1098 2.98291 11.8088C3.2781 13.508 4.18024 15.0425 5.521 16.1272C5.55953 16.1586 5.5922 16.1986 5.61572 16.2424C5.63907 16.2861 5.65377 16.3338 5.65869 16.3831C5.66361 16.4325 5.65849 16.4829 5.64404 16.5305C5.62977 16.5774 5.60568 16.6204 5.57471 16.6584L5.57568 16.6594C5.54014 16.7043 5.49449 16.7401 5.44287 16.7649C5.39116 16.7898 5.33424 16.8033 5.27686 16.803C5.18993 16.8023 5.10551 16.7715 5.03857 16.7161V16.7151C3.77258 15.6906 2.85505 14.2991 2.4126 12.7317C1.96998 11.1637 2.02483 9.49697 2.56885 7.96118C3.11288 6.42544 4.11976 5.09624 5.45068 4.15649C6.78144 3.21692 8.37049 2.71397 9.99951 2.71509Z" fill="#FF4100" stroke="#FF4100" stroke-width="0.2"/>
<path d="M9.73926 3.00391C9.83528 3.01153 9.92558 3.05555 9.99023 3.12695C10.0547 3.19827 10.0898 3.29159 10.0879 3.3877C10.086 3.48392 10.0468 3.57579 9.97949 3.64453L9.97754 3.64648C9.03899 4.54987 8.30067 5.64127 7.81152 6.84863V6.85059C7.30508 8.03277 7.04348 9.3057 7.04395 10.5918C7.05957 11.7166 7.26158 12.83 7.64062 13.8867L7.81445 14.3369L7.81641 14.3408C8.25976 15.5676 9.00134 16.6647 9.97461 17.5332L9.97559 17.5342C10.0319 17.5854 10.0713 17.6525 10.0889 17.7266C10.1064 17.8006 10.1015 17.8782 10.0742 17.9492C10.0468 18.0203 9.99829 18.0818 9.93555 18.125C9.87292 18.1681 9.79868 18.1911 9.72266 18.1914H9.72168C9.65146 18.1912 9.5834 18.1712 9.52441 18.1348L9.46875 18.0938C8.41331 17.1472 7.60911 15.9536 7.12793 14.6201V14.6191C6.59692 13.342 6.3123 11.9757 6.28906 10.5928V10.5908C6.29221 9.20226 6.57789 7.82882 7.12988 6.55469C7.65663 5.24898 8.45327 4.06912 9.4668 3.0918L9.47266 3.08496L9.47363 3.08594C9.5486 3.02579 9.64344 2.99641 9.73926 3.00391Z" fill="#FF4100" stroke="#FF4100" stroke-width="0.2"/>
<path d="M10.2583 2.98096C10.3097 2.97997 10.3611 2.98888 10.4087 3.0083C10.455 3.02722 10.4963 3.05603 10.5317 3.09131H10.5327C11.5514 4.06738 12.3524 5.24805 12.8833 6.55518L13.0767 7.0376C13.4971 8.17373 13.7126 9.37711 13.7114 10.5913V10.5933C13.6882 11.9765 13.4018 13.3423 12.8706 14.6196L12.8716 14.6206C12.3872 15.9553 11.5786 17.149 10.519 18.0942C10.4538 18.1532 10.3696 18.1881 10.2817 18.1919H10.2778C10.2017 18.1917 10.1267 18.1677 10.064 18.1245C10.0015 18.0814 9.95359 18.0205 9.92627 17.9497C9.89895 17.8788 9.89319 17.801 9.91064 17.7271C9.92817 17.6531 9.9678 17.5858 10.0239 17.5347L10.0249 17.5337C10.9983 16.6652 11.7407 15.5681 12.1841 14.3413L12.1851 14.3364C12.6761 13.1479 12.9378 11.8772 12.9556 10.5913L12.9438 10.1099C12.8873 8.98853 12.6321 7.88448 12.189 6.8501L12.188 6.84814C11.6988 5.64091 10.9604 4.55028 10.022 3.64697V3.646C9.98523 3.61488 9.95468 3.57728 9.93213 3.53467C9.90807 3.48918 9.89323 3.43948 9.88916 3.38818C9.8851 3.33698 9.8912 3.28545 9.90771 3.23682C9.92432 3.18807 9.95128 3.14315 9.98584 3.10498C10.0204 3.06683 10.062 3.0355 10.1089 3.01416C10.1557 2.99284 10.2069 2.98199 10.2583 2.98096Z" fill="#FF4100" stroke="#FF4100" stroke-width="0.2"/>
<path d="M16.3892 14.1025C16.4891 14.1026 16.585 14.1423 16.6558 14.2129C16.7266 14.2837 16.7671 14.3803 16.7671 14.4805C16.7671 14.5806 16.7265 14.6763 16.6558 14.7471C16.585 14.8178 16.4892 14.8583 16.3892 14.8584H3.61084C3.51073 14.8583 3.41503 14.8179 3.34424 14.7471C3.27345 14.6763 3.23294 14.5806 3.23291 14.4805C3.23291 14.3803 3.27339 14.2837 3.34424 14.2129C3.415 14.1423 3.51088 14.1026 3.61084 14.1025H16.3892ZM17.4995 10.2139C17.5997 10.2139 17.6962 10.2534 17.7671 10.3242C17.8379 10.3951 17.8774 10.4916 17.8774 10.5918C17.8774 10.6918 17.8378 10.7876 17.7671 10.8584C17.6962 10.9292 17.5997 10.9697 17.4995 10.9697H2.49951C2.39948 10.9696 2.30366 10.9291 2.23291 10.8584C2.16217 10.7876 2.12264 10.6918 2.12256 10.5918C2.12256 10.4916 2.16206 10.3951 2.23291 10.3242C2.30364 10.2535 2.39953 10.214 2.49951 10.2139H17.4995ZM16.3892 6.3252C16.4892 6.32528 16.585 6.36481 16.6558 6.43555C16.7265 6.50629 16.767 6.60211 16.7671 6.70215C16.7671 6.80234 16.7266 6.89888 16.6558 6.96973C16.585 7.04043 16.4892 7.07999 16.3892 7.08008H3.61084C3.5108 7.08002 3.41502 7.04042 3.34424 6.96973C3.27339 6.89888 3.23291 6.80234 3.23291 6.70215C3.23302 6.60211 3.27349 6.50629 3.34424 6.43555C3.41502 6.36482 3.51078 6.32525 3.61084 6.3252H16.3892Z" fill="#FF4100" stroke="#FF4100" stroke-width="0.2"/>
<path d="M9.99951 2.99194C10.0997 2.99194 10.1962 3.03145 10.2671 3.10229C10.3378 3.17303 10.3773 3.26889 10.3774 3.3689V17.8142C10.3773 17.9142 10.3378 18.0101 10.2671 18.0808C10.1962 18.1517 10.0997 18.1912 9.99951 18.1912C9.89948 18.191 9.80366 18.1516 9.73291 18.0808C9.66217 18.0101 9.62267 17.9142 9.62256 17.8142V3.3689C9.62267 3.26886 9.66217 3.17304 9.73291 3.10229C9.80365 3.03155 9.89948 2.99206 9.99951 2.99194Z" fill="#FF4100" stroke="#FF4100" stroke-width="0.2"/>
</svg>
