<svg width="20" height="21" viewBox="0 0 20 21" fill="none" xmlns="http://www.w3.org/2000/svg">
<path d="M10.4915 10.96L8.57484 12.8683C8.49673 12.9458 8.43473 13.0379 8.39243 13.1395C8.35012 13.241 8.32834 13.35 8.32834 13.46C8.32834 13.57 8.35012 13.6789 8.39243 13.7804C8.43473 13.882 8.49673 13.9742 8.57484 14.0516C8.65231 14.1297 8.74447 14.1917 8.84602 14.234C8.94757 14.2763 9.05649 14.2981 9.1665 14.2981C9.27651 14.2981 9.38544 14.2763 9.48698 14.234C9.58853 14.1917 9.6807 14.1297 9.75817 14.0516L13.0915 10.7183C13.1674 10.639 13.2268 10.5456 13.2665 10.4433C13.3499 10.2404 13.3499 10.0128 13.2665 9.80996C13.2268 9.70767 13.1674 9.61422 13.0915 9.53496L9.75817 6.20163C9.68047 6.12393 9.58823 6.0623 9.48671 6.02025C9.38519 5.9782 9.27639 5.95655 9.1665 5.95655C9.05662 5.95655 8.94781 5.9782 8.8463 6.02025C8.74478 6.0623 8.65254 6.12393 8.57484 6.20163C8.49714 6.27933 8.4355 6.37157 8.39345 6.47309C8.3514 6.57461 8.32976 6.68341 8.32976 6.7933C8.32976 6.90318 8.3514 7.01199 8.39345 7.1135C8.4355 7.21502 8.49714 7.30726 8.57484 7.38496L10.4915 9.2933H2.49984C2.27882 9.2933 2.06686 9.38109 1.91058 9.53737C1.7543 9.69366 1.6665 9.90562 1.6665 10.1266C1.6665 10.3476 1.7543 10.5596 1.91058 10.7159C2.06686 10.8722 2.27882 10.96 2.49984 10.96H10.4915ZM9.99984 1.7933C8.44241 1.78634 6.91421 2.21597 5.58856 3.03346C4.26291 3.85094 3.19288 5.02355 2.49984 6.4183C2.40038 6.61721 2.38402 6.84748 2.45434 7.05846C2.52467 7.26944 2.67592 7.44384 2.87484 7.5433C3.07375 7.64275 3.30402 7.65912 3.515 7.58879C3.72598 7.51847 3.90038 7.36721 3.99984 7.1683C4.52666 6.1044 5.32803 5.20048 6.32113 4.54995C7.31423 3.89943 8.46302 3.52589 9.6488 3.46796C10.8346 3.41002 12.0143 3.66978 13.0661 4.22039C14.1179 4.771 15.0036 5.59249 15.6316 6.59996C16.2596 7.60743 16.6072 8.76434 16.6385 9.95112C16.6698 11.1379 16.3836 12.3115 15.8094 13.3506C15.2353 14.3898 14.3941 15.2568 13.3728 15.862C12.3514 16.4672 11.187 16.7887 9.99984 16.7933C8.75724 16.7987 7.5383 16.4536 6.48291 15.7977C5.42753 15.1417 4.57847 14.2015 4.03317 13.085C3.93371 12.8861 3.75931 12.7348 3.54834 12.6645C3.33736 12.5941 3.10708 12.6105 2.90817 12.71C2.70926 12.8094 2.558 12.9838 2.48768 13.1948C2.41735 13.4058 2.43371 13.6361 2.53317 13.835C3.19386 15.1646 4.19777 16.2935 5.44106 17.105C6.68435 17.9165 8.12188 18.3811 9.60494 18.4508C11.088 18.5204 12.5627 18.1926 13.8766 17.5012C15.1905 16.8098 16.2958 15.78 17.0782 14.5181C17.8606 13.2563 18.2917 11.8084 18.3269 10.3241C18.3621 8.83985 18.0001 7.37312 17.2784 6.07566C16.5566 4.77819 15.5014 3.6971 14.2217 2.94422C12.9421 2.19133 11.4845 1.79399 9.99984 1.7933Z" fill="#FF4100"/>
</svg>
