<svg width="18" height="18" viewBox="0 0 18 18" fill="none" xmlns="http://www.w3.org/2000/svg">
<path d="M9.4915 9.95996L7.57484 11.8683C7.49673 11.9458 7.43473 12.0379 7.39243 12.1395C7.35012 12.241 7.32834 12.35 7.32834 12.46C7.32834 12.57 7.35012 12.6789 7.39243 12.7804C7.43473 12.882 7.49673 12.9742 7.57484 13.0516C7.65231 13.1297 7.74447 13.1917 7.84602 13.234C7.94757 13.2763 8.05649 13.2981 8.1665 13.2981C8.27651 13.2981 8.38544 13.2763 8.48698 13.234C8.58853 13.1917 8.6807 13.1297 8.75817 13.0516L12.0915 9.7183C12.1674 9.63904 12.2268 9.54559 12.2665 9.4433C12.3499 9.24041 12.3499 9.01285 12.2665 8.80996C12.2268 8.70767 12.1674 8.61422 12.0915 8.53496L8.75817 5.20163C8.68047 5.12393 8.58823 5.0623 8.48671 5.02025C8.38519 4.9782 8.27639 4.95655 8.1665 4.95655C8.05662 4.95655 7.94781 4.9782 7.8463 5.02025C7.74478 5.0623 7.65254 5.12393 7.57484 5.20163C7.49714 5.27933 7.4355 5.37157 7.39345 5.47309C7.3514 5.57461 7.32976 5.68341 7.32976 5.7933C7.32976 5.90318 7.3514 6.01199 7.39345 6.1135C7.4355 6.21502 7.49714 6.30726 7.57484 6.38496L9.4915 8.2933H1.49984C1.27882 8.2933 1.06686 8.38109 0.910582 8.53737C0.754301 8.69366 0.666504 8.90562 0.666504 9.12663C0.666504 9.34764 0.754301 9.55961 0.910582 9.71589C1.06686 9.87217 1.27882 9.95996 1.49984 9.95996H9.4915ZM8.99984 0.793296C7.44241 0.786343 5.91421 1.21597 4.58856 2.03346C3.26291 2.85094 2.19288 4.02355 1.49984 5.4183C1.40038 5.61721 1.38402 5.84748 1.45434 6.05846C1.52467 6.26944 1.67592 6.44384 1.87484 6.5433C2.07375 6.64275 2.30402 6.65912 2.515 6.58879C2.72598 6.51847 2.90038 6.36721 2.99984 6.1683C3.52666 5.1044 4.32803 4.20048 5.32113 3.54995C6.31423 2.89943 7.46302 2.52589 8.6488 2.46796C9.83458 2.41002 11.0143 2.66978 12.0661 3.22039C13.1179 3.771 14.0036 4.59249 14.6316 5.59996C15.2596 6.60743 15.6072 7.76434 15.6385 8.95112C15.6698 10.1379 15.3836 11.3115 14.8094 12.3506C14.2353 13.3898 13.3941 14.2568 12.3728 14.862C11.3514 15.4672 10.187 15.7887 8.99984 15.7933C7.75724 15.7987 6.5383 15.4536 5.48291 14.7977C4.42753 14.1417 3.57847 13.2015 3.03317 12.085C2.93371 11.8861 2.75931 11.7348 2.54834 11.6645C2.33736 11.5941 2.10708 11.6105 1.90817 11.71C1.70926 11.8094 1.558 11.9838 1.48768 12.1948C1.41735 12.4058 1.43371 12.6361 1.53317 12.835C2.19386 14.1646 3.19777 15.2935 4.44106 16.105C5.68435 16.9165 7.12188 17.3811 8.60494 17.4508C10.088 17.5204 11.5627 17.1926 12.8766 16.5012C14.1905 15.8098 15.2958 14.78 16.0782 13.5181C16.8606 12.2563 17.2917 10.8084 17.3269 9.32413C17.3621 7.83985 17.0001 6.37312 16.2784 5.07566C15.5566 3.77819 14.5014 2.6971 13.2217 1.94422C11.9421 1.19133 10.4845 0.793993 8.99984 0.793296Z" fill="#FF4100"/>
</svg>
