<svg width="14" height="17" viewBox="0 0 14 17" fill="none" xmlns="http://www.w3.org/2000/svg">
<path d="M5.23484 12.1052L5.23485 12.1054L5.24738 12.1044C6.42037 12.0098 7.59875 12.0098 8.77174 12.1044L8.77173 12.1045L8.78281 12.1051C9.41323 12.1419 10.0407 12.2207 10.6612 12.3411C12.0247 12.6174 12.7254 13.0376 13.0031 13.5625C13.2214 13.9974 13.2214 14.5156 13.003 14.9505C12.7226 15.481 12.0479 15.9268 10.6579 16.1698L10.6579 16.1696L10.6452 16.1722C10.0256 16.2971 9.39852 16.3783 8.76824 16.4153L8.75546 16.416L8.74273 16.4174C8.16897 16.4806 7.59088 16.4811 6.97351 16.4811H5.90182C5.66745 16.4522 5.43788 16.4372 5.21333 16.4367C4.58833 16.4039 3.96637 16.3254 3.35213 16.2018L3.35213 16.2018L3.34767 16.2009C1.98977 15.9405 1.2849 15.5054 1.00726 14.9771C0.894444 14.7614 0.834543 14.5196 0.833586 14.2731L0.833561 14.2704C0.831271 14.0232 0.889206 13.7799 1.00132 13.5631L1.00161 13.5625C1.2722 13.0375 1.97441 12.5952 3.34423 12.3423L3.34424 12.3424L3.34978 12.3413C3.97229 12.2191 4.60207 12.1402 5.23484 12.1052ZM7.00235 0.814453C9.12996 0.814453 10.8784 2.59216 10.8784 4.81475C10.8784 7.03734 9.12996 8.81505 7.00235 8.81505C4.87474 8.81505 3.12626 7.03734 3.12626 4.81475C3.12626 2.59216 4.87474 0.814453 7.00235 0.814453Z" stroke="#FF4100"/>
</svg>
