<svg width="14" height="17" viewBox="0 0 14 17" fill="none" xmlns="http://www.w3.org/2000/svg">
<path d="M7.76683 11.0351C7.75019 10.9839 7.72482 10.936 7.69183 10.8934L7.59183 10.7684C7.51437 10.6903 7.4222 10.6283 7.32065 10.586C7.2191 10.5437 7.11018 10.5219 7.00017 10.5219C6.89016 10.5219 6.78124 10.5437 6.67969 10.586C6.57814 10.6283 6.48597 10.6903 6.4085 10.7684C6.36878 10.8045 6.33502 10.8467 6.3085 10.8934C6.27552 10.936 6.25014 10.9839 6.2335 11.0351C6.20937 11.0852 6.19253 11.1385 6.1835 11.1934C6.17942 11.2461 6.17942 11.2991 6.1835 11.3518C6.1806 11.4638 6.20341 11.5749 6.25017 11.6768C6.33497 11.8794 6.49636 12.0404 6.69924 12.1247C6.90212 12.2089 7.13007 12.2097 7.3335 12.1268C7.43478 12.0815 7.52773 12.0195 7.6085 11.9434C7.68346 11.8666 7.74288 11.7761 7.7835 11.6768C7.82728 11.574 7.84995 11.4635 7.85017 11.3518C7.85425 11.2991 7.85425 11.2461 7.85017 11.1934C7.8307 11.1367 7.80259 11.0833 7.76683 11.0351ZM7.00017 4.66842C6.77915 4.66842 6.56719 4.75622 6.41091 4.9125C6.25463 5.06878 6.16683 5.28074 6.16683 5.50175V8.00175C6.16683 8.22277 6.25463 8.43473 6.41091 8.59101C6.56719 8.74729 6.77915 8.83509 7.00017 8.83509C7.22118 8.83509 7.43314 8.74729 7.58942 8.59101C7.7457 8.43473 7.8335 8.22277 7.8335 8.00175V5.50175C7.8335 5.28074 7.7457 5.06878 7.58942 4.9125C7.43314 4.75622 7.22118 4.66842 7.00017 4.66842ZM13.3585 1.57675C13.2617 1.49844 13.1486 1.44282 13.0274 1.41397C12.9063 1.38513 12.7802 1.3838 12.6585 1.41009C11.768 1.59671 10.8488 1.59908 9.95736 1.41707C9.06594 1.23506 8.2212 0.872516 7.47517 0.351755C7.33567 0.254982 7.16994 0.203125 7.00017 0.203125C6.83039 0.203125 6.66466 0.254982 6.52517 0.351755C5.77913 0.872516 4.9344 1.23506 4.04297 1.41707C3.15155 1.59908 2.2323 1.59671 1.34183 1.41009C1.22012 1.3838 1.09406 1.38513 0.972918 1.41397C0.851781 1.44282 0.738647 1.49844 0.641834 1.57675C0.54515 1.65519 0.467268 1.75428 0.413911 1.86677C0.360554 1.97925 0.333078 2.10226 0.333501 2.22675V8.43509C0.33276 9.62988 0.617478 10.8076 1.16395 11.8701C1.71041 12.9326 2.50282 13.8491 3.47517 14.5434L6.51683 16.7101C6.65797 16.8106 6.82691 16.8646 7.00017 16.8646C7.17342 16.8646 7.34237 16.8106 7.4835 16.7101L10.5252 14.5434C11.4975 13.8491 12.2899 12.9326 12.8364 11.8701C13.3829 10.8076 13.6676 9.62988 13.6668 8.43509V2.22675C13.6673 2.10226 13.6398 1.97925 13.5864 1.86677C13.5331 1.75428 13.4552 1.65519 13.3585 1.57675ZM12.0002 8.43509C12.0008 9.36405 11.7796 10.2797 11.3549 11.1059C10.9302 11.9321 10.3143 12.645 9.5585 13.1851L7.00017 15.0101L4.44183 13.1851C3.68603 12.645 3.07015 11.9321 2.64546 11.1059C2.22076 10.2797 1.99953 9.36405 2.00017 8.43509V3.18509C3.74719 3.33462 5.49687 2.92927 7.00017 2.02675C8.50347 2.92927 10.2531 3.33462 12.0002 3.18509V8.43509Z" fill="#FF4100"/>
</svg>
