<svg width="20" height="21" viewBox="0 0 20 21" fill="none" xmlns="http://www.w3.org/2000/svg">
<path d="M8.24756 14.1047C9.4205 14.0102 10.599 14.0102 11.772 14.1047L11.7827 14.1057C12.2559 14.1333 12.7276 14.1842 13.1958 14.259L13.6636 14.342C15.0279 14.6189 15.7279 15.0398 16.0044 15.5657C16.2208 15.999 16.2207 16.5142 16.0044 16.9475C15.725 17.4793 15.0505 17.9267 13.6577 18.1702L13.645 18.1721C13.0255 18.297 12.3983 18.3784 11.7681 18.4153L11.7427 18.4172C11.1689 18.4805 10.5905 18.4817 9.97314 18.4817H8.89404C8.66607 18.4539 8.4428 18.4378 8.22412 18.4368C7.5955 18.4044 6.96981 18.3267 6.35205 18.2024L6.34814 18.2014L5.86865 18.095C4.8946 17.8488 4.33346 17.4943 4.06396 17.0745L4.00732 16.9768C3.8947 16.7613 3.83452 16.5199 3.8335 16.2737V16.2708L3.84326 16.0862C3.86385 15.9035 3.91748 15.7263 4.00146 15.5637V15.5627C4.27204 15.0377 4.97446 14.5959 6.34424 14.343L6.3501 14.3411C6.97248 14.2189 7.60223 14.1407 8.23486 14.1057L8.24756 14.1047ZM10.0024 2.8147C12.1299 2.81475 13.8783 4.59228 13.8784 6.8147C13.8784 9.03725 12.13 10.8156 10.0024 10.8157C7.87483 10.8157 6.12646 9.03728 6.12646 6.8147C6.12662 4.59225 7.87493 2.8147 10.0024 2.8147Z" stroke="#FF4100"/>
</svg>
