<svg width="24" height="25" viewBox="0 0 24 25" fill="none" xmlns="http://www.w3.org/2000/svg">
<path d="M9.88867 16.5479C11.3015 16.434 12.7209 16.434 14.1338 16.5479L14.1445 16.5488C14.9063 16.5932 15.6653 16.6884 16.415 16.834V16.833C17.9557 17.1455 18.827 17.6172 19.2217 18.2305L19.2939 18.3555C19.5684 18.9042 19.5684 19.5567 19.2939 20.1055C18.9368 20.7857 18.0877 21.331 16.4062 21.625L16.3936 21.627C15.6457 21.7778 14.8888 21.8763 14.1279 21.9209L14.1152 21.9219L14.1016 21.9229C13.4068 21.9994 12.7075 22 11.9678 22H10.668C10.393 21.9662 10.1241 21.9472 9.86133 21.9463C9.10285 21.9071 8.34791 21.8131 7.60254 21.6631L7.59863 21.6621L7.2998 21.6006C5.94953 21.3026 5.16282 20.8423 4.79297 20.2666L4.71973 20.1416C4.57692 19.8686 4.50126 19.5626 4.5 19.251V19.248L4.51172 19.0146C4.53778 18.7832 4.60634 18.5586 4.71289 18.3525V18.3516C5.05998 17.6784 5.94392 17.1397 7.59473 16.835L7.60059 16.834C8.352 16.6865 9.11217 16.5911 9.87598 16.5488L9.88867 16.5479ZM12.0029 3C14.6138 3.00017 16.7539 5.18082 16.7539 7.90039C16.7539 10.6199 14.6138 12.8006 12.0029 12.8008C9.39196 12.8008 7.25099 10.62 7.25098 7.90039C7.25098 5.18072 9.39195 3 12.0029 3Z" stroke="white"/>
</svg>
