<svg width="20" height="21" viewBox="0 0 20 21" fill="none" xmlns="http://www.w3.org/2000/svg">
<path d="M10.0015 4.98938C7.10647 4.98938 4.75146 7.34438 4.75146 10.2394C4.75146 13.1344 7.10647 15.4894 10.0015 15.4894C12.8965 15.4894 15.2515 13.1344 15.2515 10.2394C15.2515 7.34438 12.8962 4.98938 10.0015 4.98938ZM10.0015 14.9894C7.38222 14.9894 5.25146 12.8586 5.25146 10.2394C5.25146 7.62013 7.38222 5.48938 10.0015 5.48938C12.6207 5.48938 14.7515 7.62013 14.7515 10.2394C14.7515 12.8586 12.6205 14.9894 10.0015 14.9894Z" fill="#FF4100"/>
<mask id="path-2-outside-1_0_817" maskUnits="userSpaceOnUse" x="0.25" y="0.48938" width="19" height="19" fill="black">
<rect fill="white" x="0.25" y="0.48938" width="19" height="19"/>
<path d="M18.5 9.00513H16.8905C16.7142 8.02229 16.3297 7.0885 15.763 6.26638L16.9055 5.12388C16.9524 5.077 16.9787 5.01342 16.9787 4.94713C16.9787 4.88084 16.9524 4.81726 16.9055 4.77038L15.4913 3.35613C15.4444 3.30926 15.3808 3.28293 15.3145 3.28293C15.2482 3.28293 15.1846 3.30926 15.1377 3.35613L13.9995 4.49438C13.18 3.92356 12.2479 3.53468 11.2657 3.35388V1.73938C11.2657 1.67308 11.2394 1.60949 11.1925 1.5626C11.1456 1.51572 11.0821 1.48938 11.0157 1.48938H9.01575C8.94945 1.48938 8.88586 1.51572 8.83897 1.5626C8.79209 1.60949 8.76575 1.67308 8.76575 1.73938V3.34888C7.78287 3.52508 6.84906 3.90952 6.027 4.47638L4.8845 3.33388C4.83762 3.28701 4.77404 3.26068 4.70775 3.26068C4.64146 3.26068 4.57788 3.28701 4.531 3.33388L3.11675 4.74813C3.06988 4.79501 3.04355 4.85859 3.04355 4.92488C3.04355 4.99117 3.06988 5.05475 3.11675 5.10163L4.255 6.23988C3.68414 7.05941 3.29527 7.99162 3.1145 8.97388H1.5C1.4337 8.97388 1.37011 9.00022 1.32322 9.0471C1.27634 9.09399 1.25 9.15758 1.25 9.22388V11.2239C1.25 11.2902 1.27634 11.3538 1.32322 11.4007C1.37011 11.4475 1.4337 11.4739 1.5 11.4739H3.1095C3.28587 12.4566 3.6703 13.3903 4.237 14.2124L3.0945 15.3549C3.04763 15.4018 3.0213 15.4653 3.0213 15.5316C3.0213 15.5979 3.04763 15.6615 3.0945 15.7084L4.50875 17.1226C4.55563 17.1695 4.61921 17.1958 4.6855 17.1958C4.75179 17.1958 4.81537 17.1695 4.86225 17.1226L6.0005 15.9844C6.82003 16.5552 7.75224 16.9441 8.7345 17.1249V18.7394C8.7345 18.8057 8.76084 18.8693 8.80772 18.9162C8.85461 18.963 8.9182 18.9894 8.9845 18.9894H10.9845C11.0508 18.9894 11.1144 18.963 11.1613 18.9162C11.2082 18.8693 11.2345 18.8057 11.2345 18.7394V17.1299C12.2173 16.9536 13.151 16.5692 13.973 16.0024L15.1155 17.1449C15.1624 17.1917 15.226 17.2181 15.2922 17.2181C15.3585 17.2181 15.4221 17.1917 15.469 17.1449L16.8832 15.7306C16.9301 15.6837 16.9564 15.6202 16.9564 15.5539C16.9564 15.4876 16.9301 15.424 16.8832 15.3771L15.745 14.2389C16.3158 13.4194 16.7047 12.4873 16.8855 11.5051H18.5C18.5663 11.5051 18.6299 11.4788 18.6768 11.4319C18.7237 11.385 18.75 11.3214 18.75 11.2551V9.25513C18.75 9.18883 18.7237 9.12524 18.6768 9.07835C18.6299 9.03147 18.5663 9.00513 18.5 9.00513ZM18.25 11.0051H16.6737C16.6139 11.0051 16.5561 11.0265 16.5107 11.0655C16.4654 11.1045 16.4355 11.1585 16.4265 11.2176C16.2668 12.2681 15.8517 13.2633 15.2175 14.1159C15.1816 14.164 15.1642 14.2235 15.1686 14.2834C15.173 14.3433 15.1988 14.3997 15.2413 14.4421L16.353 15.5539L15.2925 16.6144L14.177 15.4994C14.1348 15.457 14.0787 15.4312 14.0191 15.4267C13.9595 15.4221 13.9002 15.4392 13.852 15.4746C12.9965 16.1045 11.9995 16.5149 10.9485 16.6696C10.8891 16.6783 10.8348 16.7081 10.7955 16.7536C10.7563 16.799 10.7347 16.8571 10.7347 16.9171V18.4894H9.23475V16.9131C9.23476 16.8533 9.21329 16.7954 9.17425 16.75C9.13521 16.7047 9.08119 16.6748 9.022 16.6659C7.97151 16.5062 6.97629 16.0911 6.12375 15.4569C6.07565 15.4208 6.01614 15.4034 5.95618 15.4077C5.89623 15.4121 5.83988 15.438 5.7975 15.4806L4.68575 16.5924L3.625 15.5319L4.74 14.4164C4.78236 14.3741 4.80816 14.3181 4.8127 14.2585C4.81724 14.1988 4.80023 14.1395 4.76475 14.0914C4.13505 13.2358 3.72473 12.2389 3.56975 11.1879C3.56104 11.1285 3.53124 11.0742 3.4858 11.0349C3.44035 10.9957 3.3823 10.9741 3.32225 10.9741H1.75V9.47413H3.32625C3.38611 9.47414 3.44398 9.45267 3.48935 9.41363C3.53472 9.37459 3.56458 9.32057 3.5735 9.26138C3.73315 8.21089 4.14831 7.21567 4.7825 6.36313C4.8184 6.31497 4.83575 6.25549 4.83139 6.19558C4.82703 6.13567 4.80124 6.07934 4.75875 6.03688L3.647 4.92513L4.7075 3.86438L5.823 4.97938C5.9105 5.06763 6.04875 5.07688 6.148 5.00413C7.00348 4.37424 8.00047 3.96391 9.0515 3.80913C9.11096 3.80048 9.16531 3.7707 9.20461 3.72525C9.24391 3.6798 9.26553 3.62171 9.2655 3.56163V1.98938H10.7655V3.56563C10.7655 3.62545 10.7869 3.68329 10.8259 3.72866C10.8649 3.77402 10.9189 3.80391 10.978 3.81288C12.0235 3.97038 13.0255 4.38863 13.8763 5.02188C13.9244 5.05778 13.9839 5.07513 14.0438 5.07077C14.1037 5.06641 14.16 5.04062 14.2025 4.99813L15.3142 3.88638L16.375 4.94688L15.26 6.06238C15.2176 6.10461 15.1918 6.16064 15.1873 6.22029C15.1828 6.27993 15.1998 6.33922 15.2353 6.38738C15.865 7.24297 16.2753 8.23991 16.4303 9.29088C16.4389 9.35034 16.4687 9.40469 16.5141 9.44399C16.5596 9.48329 16.6177 9.50491 16.6777 9.50488H18.25V11.0051Z"/>
</mask>
<path d="M18.5 9.00513H16.8905C16.7142 8.02229 16.3297 7.0885 15.763 6.26638L16.9055 5.12388C16.9524 5.077 16.9787 5.01342 16.9787 4.94713C16.9787 4.88084 16.9524 4.81726 16.9055 4.77038L15.4913 3.35613C15.4444 3.30926 15.3808 3.28293 15.3145 3.28293C15.2482 3.28293 15.1846 3.30926 15.1377 3.35613L13.9995 4.49438C13.18 3.92356 12.2479 3.53468 11.2657 3.35388V1.73938C11.2657 1.67308 11.2394 1.60949 11.1925 1.5626C11.1456 1.51572 11.0821 1.48938 11.0157 1.48938H9.01575C8.94945 1.48938 8.88586 1.51572 8.83897 1.5626C8.79209 1.60949 8.76575 1.67308 8.76575 1.73938V3.34888C7.78287 3.52508 6.84906 3.90952 6.027 4.47638L4.8845 3.33388C4.83762 3.28701 4.77404 3.26068 4.70775 3.26068C4.64146 3.26068 4.57788 3.28701 4.531 3.33388L3.11675 4.74813C3.06988 4.79501 3.04355 4.85859 3.04355 4.92488C3.04355 4.99117 3.06988 5.05475 3.11675 5.10163L4.255 6.23988C3.68414 7.05941 3.29527 7.99162 3.1145 8.97388H1.5C1.4337 8.97388 1.37011 9.00022 1.32322 9.0471C1.27634 9.09399 1.25 9.15758 1.25 9.22388V11.2239C1.25 11.2902 1.27634 11.3538 1.32322 11.4007C1.37011 11.4475 1.4337 11.4739 1.5 11.4739H3.1095C3.28587 12.4566 3.6703 13.3903 4.237 14.2124L3.0945 15.3549C3.04763 15.4018 3.0213 15.4653 3.0213 15.5316C3.0213 15.5979 3.04763 15.6615 3.0945 15.7084L4.50875 17.1226C4.55563 17.1695 4.61921 17.1958 4.6855 17.1958C4.75179 17.1958 4.81537 17.1695 4.86225 17.1226L6.0005 15.9844C6.82003 16.5552 7.75224 16.9441 8.7345 17.1249V18.7394C8.7345 18.8057 8.76084 18.8693 8.80772 18.9162C8.85461 18.963 8.9182 18.9894 8.9845 18.9894H10.9845C11.0508 18.9894 11.1144 18.963 11.1613 18.9162C11.2082 18.8693 11.2345 18.8057 11.2345 18.7394V17.1299C12.2173 16.9536 13.151 16.5692 13.973 16.0024L15.1155 17.1449C15.1624 17.1917 15.226 17.2181 15.2922 17.2181C15.3585 17.2181 15.4221 17.1917 15.469 17.1449L16.8832 15.7306C16.9301 15.6837 16.9564 15.6202 16.9564 15.5539C16.9564 15.4876 16.9301 15.424 16.8832 15.3771L15.745 14.2389C16.3158 13.4194 16.7047 12.4873 16.8855 11.5051H18.5C18.5663 11.5051 18.6299 11.4788 18.6768 11.4319C18.7237 11.385 18.75 11.3214 18.75 11.2551V9.25513C18.75 9.18883 18.7237 9.12524 18.6768 9.07835C18.6299 9.03147 18.5663 9.00513 18.5 9.00513ZM18.25 11.0051H16.6737C16.6139 11.0051 16.5561 11.0265 16.5107 11.0655C16.4654 11.1045 16.4355 11.1585 16.4265 11.2176C16.2668 12.2681 15.8517 13.2633 15.2175 14.1159C15.1816 14.164 15.1642 14.2235 15.1686 14.2834C15.173 14.3433 15.1988 14.3997 15.2413 14.4421L16.353 15.5539L15.2925 16.6144L14.177 15.4994C14.1348 15.457 14.0787 15.4312 14.0191 15.4267C13.9595 15.4221 13.9002 15.4392 13.852 15.4746C12.9965 16.1045 11.9995 16.5149 10.9485 16.6696C10.8891 16.6783 10.8348 16.7081 10.7955 16.7536C10.7563 16.799 10.7347 16.8571 10.7347 16.9171V18.4894H9.23475V16.9131C9.23476 16.8533 9.21329 16.7954 9.17425 16.75C9.13521 16.7047 9.08119 16.6748 9.022 16.6659C7.97151 16.5062 6.97629 16.0911 6.12375 15.4569C6.07565 15.4208 6.01614 15.4034 5.95618 15.4077C5.89623 15.4121 5.83988 15.438 5.7975 15.4806L4.68575 16.5924L3.625 15.5319L4.74 14.4164C4.78236 14.3741 4.80816 14.3181 4.8127 14.2585C4.81724 14.1988 4.80023 14.1395 4.76475 14.0914C4.13505 13.2358 3.72473 12.2389 3.56975 11.1879C3.56104 11.1285 3.53124 11.0742 3.4858 11.0349C3.44035 10.9957 3.3823 10.9741 3.32225 10.9741H1.75V9.47413H3.32625C3.38611 9.47414 3.44398 9.45267 3.48935 9.41363C3.53472 9.37459 3.56458 9.32057 3.5735 9.26138C3.73315 8.21089 4.14831 7.21567 4.7825 6.36313C4.8184 6.31497 4.83575 6.25549 4.83139 6.19558C4.82703 6.13567 4.80124 6.07934 4.75875 6.03688L3.647 4.92513L4.7075 3.86438L5.823 4.97938C5.9105 5.06763 6.04875 5.07688 6.148 5.00413C7.00348 4.37424 8.00047 3.96391 9.0515 3.80913C9.11096 3.80048 9.16531 3.7707 9.20461 3.72525C9.24391 3.6798 9.26553 3.62171 9.2655 3.56163V1.98938H10.7655V3.56563C10.7655 3.62545 10.7869 3.68329 10.8259 3.72866C10.8649 3.77402 10.9189 3.80391 10.978 3.81288C12.0235 3.97038 13.0255 4.38863 13.8763 5.02188C13.9244 5.05778 13.9839 5.07513 14.0438 5.07077C14.1037 5.06641 14.16 5.04062 14.2025 4.99813L15.3142 3.88638L16.375 4.94688L15.26 6.06238C15.2176 6.10461 15.1918 6.16064 15.1873 6.22029C15.1828 6.27993 15.1998 6.33922 15.2353 6.38738C15.865 7.24297 16.2753 8.23991 16.4303 9.29088C16.4389 9.35034 16.4687 9.40469 16.5141 9.44399C16.5596 9.48329 16.6177 9.50491 16.6777 9.50488H18.25V11.0051Z" fill="#FF4100"/>
<path d="M18.5 9.00513H16.8905C16.7142 8.02229 16.3297 7.0885 15.763 6.26638L16.9055 5.12388C16.9524 5.077 16.9787 5.01342 16.9787 4.94713C16.9787 4.88084 16.9524 4.81726 16.9055 4.77038L15.4913 3.35613C15.4444 3.30926 15.3808 3.28293 15.3145 3.28293C15.2482 3.28293 15.1846 3.30926 15.1377 3.35613L13.9995 4.49438C13.18 3.92356 12.2479 3.53468 11.2657 3.35388V1.73938C11.2657 1.67308 11.2394 1.60949 11.1925 1.5626C11.1456 1.51572 11.0821 1.48938 11.0157 1.48938H9.01575C8.94945 1.48938 8.88586 1.51572 8.83897 1.5626C8.79209 1.60949 8.76575 1.67308 8.76575 1.73938V3.34888C7.78287 3.52508 6.84906 3.90952 6.027 4.47638L4.8845 3.33388C4.83762 3.28701 4.77404 3.26068 4.70775 3.26068C4.64146 3.26068 4.57788 3.28701 4.531 3.33388L3.11675 4.74813C3.06988 4.79501 3.04355 4.85859 3.04355 4.92488C3.04355 4.99117 3.06988 5.05475 3.11675 5.10163L4.255 6.23988C3.68414 7.05941 3.29527 7.99162 3.1145 8.97388H1.5C1.4337 8.97388 1.37011 9.00022 1.32322 9.0471C1.27634 9.09399 1.25 9.15758 1.25 9.22388V11.2239C1.25 11.2902 1.27634 11.3538 1.32322 11.4007C1.37011 11.4475 1.4337 11.4739 1.5 11.4739H3.1095C3.28587 12.4566 3.6703 13.3903 4.237 14.2124L3.0945 15.3549C3.04763 15.4018 3.0213 15.4653 3.0213 15.5316C3.0213 15.5979 3.04763 15.6615 3.0945 15.7084L4.50875 17.1226C4.55563 17.1695 4.61921 17.1958 4.6855 17.1958C4.75179 17.1958 4.81537 17.1695 4.86225 17.1226L6.0005 15.9844C6.82003 16.5552 7.75224 16.9441 8.7345 17.1249V18.7394C8.7345 18.8057 8.76084 18.8693 8.80772 18.9162C8.85461 18.963 8.9182 18.9894 8.9845 18.9894H10.9845C11.0508 18.9894 11.1144 18.963 11.1613 18.9162C11.2082 18.8693 11.2345 18.8057 11.2345 18.7394V17.1299C12.2173 16.9536 13.151 16.5692 13.973 16.0024L15.1155 17.1449C15.1624 17.1917 15.226 17.2181 15.2922 17.2181C15.3585 17.2181 15.4221 17.1917 15.469 17.1449L16.8832 15.7306C16.9301 15.6837 16.9564 15.6202 16.9564 15.5539C16.9564 15.4876 16.9301 15.424 16.8832 15.3771L15.745 14.2389C16.3158 13.4194 16.7047 12.4873 16.8855 11.5051H18.5C18.5663 11.5051 18.6299 11.4788 18.6768 11.4319C18.7237 11.385 18.75 11.3214 18.75 11.2551V9.25513C18.75 9.18883 18.7237 9.12524 18.6768 9.07835C18.6299 9.03147 18.5663 9.00513 18.5 9.00513ZM18.25 11.0051H16.6737C16.6139 11.0051 16.5561 11.0265 16.5107 11.0655C16.4654 11.1045 16.4355 11.1585 16.4265 11.2176C16.2668 12.2681 15.8517 13.2633 15.2175 14.1159C15.1816 14.164 15.1642 14.2235 15.1686 14.2834C15.173 14.3433 15.1988 14.3997 15.2413 14.4421L16.353 15.5539L15.2925 16.6144L14.177 15.4994C14.1348 15.457 14.0787 15.4312 14.0191 15.4267C13.9595 15.4221 13.9002 15.4392 13.852 15.4746C12.9965 16.1045 11.9995 16.5149 10.9485 16.6696C10.8891 16.6783 10.8348 16.7081 10.7955 16.7536C10.7563 16.799 10.7347 16.8571 10.7347 16.9171V18.4894H9.23475V16.9131C9.23476 16.8533 9.21329 16.7954 9.17425 16.75C9.13521 16.7047 9.08119 16.6748 9.022 16.6659C7.97151 16.5062 6.97629 16.0911 6.12375 15.4569C6.07565 15.4208 6.01614 15.4034 5.95618 15.4077C5.89623 15.4121 5.83988 15.438 5.7975 15.4806L4.68575 16.5924L3.625 15.5319L4.74 14.4164C4.78236 14.3741 4.80816 14.3181 4.8127 14.2585C4.81724 14.1988 4.80023 14.1395 4.76475 14.0914C4.13505 13.2358 3.72473 12.2389 3.56975 11.1879C3.56104 11.1285 3.53124 11.0742 3.4858 11.0349C3.44035 10.9957 3.3823 10.9741 3.32225 10.9741H1.75V9.47413H3.32625C3.38611 9.47414 3.44398 9.45267 3.48935 9.41363C3.53472 9.37459 3.56458 9.32057 3.5735 9.26138C3.73315 8.21089 4.14831 7.21567 4.7825 6.36313C4.8184 6.31497 4.83575 6.25549 4.83139 6.19558C4.82703 6.13567 4.80124 6.07934 4.75875 6.03688L3.647 4.92513L4.7075 3.86438L5.823 4.97938C5.9105 5.06763 6.04875 5.07688 6.148 5.00413C7.00348 4.37424 8.00047 3.96391 9.0515 3.80913C9.11096 3.80048 9.16531 3.7707 9.20461 3.72525C9.24391 3.6798 9.26553 3.62171 9.2655 3.56163V1.98938H10.7655V3.56563C10.7655 3.62545 10.7869 3.68329 10.8259 3.72866C10.8649 3.77402 10.9189 3.80391 10.978 3.81288C12.0235 3.97038 13.0255 4.38863 13.8763 5.02188C13.9244 5.05778 13.9839 5.07513 14.0438 5.07077C14.1037 5.06641 14.16 5.04062 14.2025 4.99813L15.3142 3.88638L16.375 4.94688L15.26 6.06238C15.2176 6.10461 15.1918 6.16064 15.1873 6.22029C15.1828 6.27993 15.1998 6.33922 15.2353 6.38738C15.865 7.24297 16.2753 8.23991 16.4303 9.29088C16.4389 9.35034 16.4687 9.40469 16.5141 9.44399C16.5596 9.48329 16.6177 9.50491 16.6777 9.50488H18.25V11.0051Z" stroke="#FF4100" stroke-width="0.4" mask="url(#path-2-outside-1_0_817)"/>
<path d="M11.8515 9.64523V8.98938C11.8515 7.96915 11.0217 7.13938 10.0015 7.13938C8.98124 7.13938 8.15147 7.96915 8.15147 8.98938V9.64523C7.72969 9.69486 7.40146 10.0545 7.40146 10.4894V12.4894C7.40146 12.9581 7.78274 13.3394 8.25147 13.3394H11.7515C12.2202 13.3394 12.6015 12.9581 12.6015 12.4894V10.4894C12.6015 10.0545 12.2732 9.69486 11.8515 9.64523ZM8.85147 8.98938C8.85147 8.35536 9.36744 7.83938 10.0015 7.83938C10.6355 7.83938 11.1515 8.35536 11.1515 8.98938V9.63938H8.85147V8.98938ZM11.9015 12.4894C11.9015 12.5292 11.8857 12.5673 11.8575 12.5954C11.8294 12.6236 11.7912 12.6394 11.7515 12.6394H8.25147C8.21168 12.6394 8.17353 12.6236 8.1454 12.5954C8.11727 12.5673 8.10147 12.5292 8.10147 12.4894V10.4894C8.10147 10.4496 8.11727 10.4114 8.1454 10.3833C8.17353 10.3552 8.21168 10.3394 8.25147 10.3394H11.7515C11.7912 10.3394 11.8294 10.3552 11.8575 10.3833C11.8857 10.4114 11.9015 10.4496 11.9015 10.4894V12.4894Z" fill="#FF4100" stroke="#FF4100" stroke-width="0.2"/>
</svg>
