<svg width="20" height="21" viewBox="0 0 20 21" fill="none" xmlns="http://www.w3.org/2000/svg">
<path d="M10.7668 13.0351C10.7502 12.9839 10.7248 12.936 10.6918 12.8934L10.5918 12.7684C10.5144 12.6903 10.4222 12.6283 10.3206 12.586C10.2191 12.5437 10.1102 12.5219 10.0002 12.5219C9.89016 12.5219 9.78124 12.5437 9.67969 12.586C9.57814 12.6283 9.48597 12.6903 9.4085 12.7684C9.36878 12.8045 9.33502 12.8467 9.3085 12.8934C9.27552 12.936 9.25014 12.9839 9.2335 13.0351C9.20937 13.0852 9.19253 13.1385 9.1835 13.1934C9.17942 13.2461 9.17942 13.2991 9.1835 13.3518C9.1806 13.4638 9.20341 13.5749 9.25017 13.6768C9.33497 13.8794 9.49636 14.0404 9.69924 14.1247C9.90212 14.2089 10.1301 14.2097 10.3335 14.1268C10.4348 14.0815 10.5277 14.0195 10.6085 13.9434C10.6835 13.8666 10.7429 13.7761 10.7835 13.6768C10.8273 13.574 10.85 13.4635 10.8502 13.3518C10.8543 13.2991 10.8543 13.2461 10.8502 13.1934C10.8307 13.1367 10.8026 13.0833 10.7668 13.0351ZM10.0002 6.66842C9.77915 6.66842 9.56719 6.75622 9.41091 6.9125C9.25463 7.06878 9.16683 7.28074 9.16683 7.50175V10.0018C9.16683 10.2228 9.25463 10.4347 9.41091 10.591C9.56719 10.7473 9.77915 10.8351 10.0002 10.8351C10.2212 10.8351 10.4331 10.7473 10.5894 10.591C10.7457 10.4347 10.8335 10.2228 10.8335 10.0018V7.50175C10.8335 7.28074 10.7457 7.06878 10.5894 6.9125C10.4331 6.75622 10.2212 6.66842 10.0002 6.66842ZM16.3585 3.57675C16.2617 3.49844 16.1486 3.44282 16.0274 3.41397C15.9063 3.38513 15.7802 3.3838 15.6585 3.41009C14.768 3.59671 13.8488 3.59908 12.9574 3.41707C12.0659 3.23506 11.2212 2.87252 10.4752 2.35175C10.3357 2.25498 10.1699 2.20312 10.0002 2.20312C9.83039 2.20312 9.66466 2.25498 9.52517 2.35175C8.77913 2.87252 7.9344 3.23506 7.04297 3.41707C6.15155 3.59908 5.2323 3.59671 4.34183 3.41009C4.22012 3.3838 4.09406 3.38513 3.97292 3.41397C3.85178 3.44282 3.73865 3.49844 3.64183 3.57675C3.54515 3.65519 3.46727 3.75428 3.41391 3.86677C3.36055 3.97925 3.33308 4.10226 3.3335 4.22675V10.4351C3.33276 11.6299 3.61748 12.8076 4.16395 13.8701C4.71041 14.9326 5.50282 15.8491 6.47517 16.5434L9.51683 18.7101C9.65797 18.8106 9.82691 18.8646 10.0002 18.8646C10.1734 18.8646 10.3424 18.8106 10.4835 18.7101L13.5252 16.5434C14.4975 15.8491 15.2899 14.9326 15.8364 13.8701C16.3829 12.8076 16.6676 11.6299 16.6668 10.4351V4.22675C16.6673 4.10226 16.6398 3.97925 16.5864 3.86677C16.5331 3.75428 16.4552 3.65519 16.3585 3.57675ZM15.0002 10.4351C15.0008 11.3641 14.7796 12.2797 14.3549 13.1059C13.9302 13.9321 13.3143 14.645 12.5585 15.1851L10.0002 17.0101L7.44183 15.1851C6.68603 14.645 6.07015 13.9321 5.64546 13.1059C5.22076 12.2797 4.99953 11.3641 5.00017 10.4351V5.18509C6.74719 5.33462 8.49687 4.92927 10.0002 4.02675C11.5035 4.92927 13.2531 5.33462 15.0002 5.18509V10.4351Z" fill="#FF4100"/>
</svg>
